<svg width="8" height="14" viewBox="0 0 8 14" fill="none" xmlns="http://www.w3.org/2000/svg">
<path d="M0.305919 13.6918C0.110039 13.4945 0 13.2268 0 12.9477C0 12.6686 0.110039 12.401 0.305919 12.2036L5.47795 6.99365L0.305919 1.78371C0.115591 1.5852 0.0102748 1.31933 0.0126554 1.04337C0.015036 0.767402 0.124922 0.503418 0.318647 0.308273C0.512371 0.113129 0.774433 0.00243855 1.04839 4.00543e-05C1.32235 -0.00235748 1.58628 0.103729 1.78334 0.295453L7.69408 6.24952C7.88996 6.44689 8 6.71456 8 6.99365C8 7.27273 7.88996 7.5404 7.69408 7.73777L1.78334 13.6918C1.5874 13.8892 1.32169 14 1.04463 14C0.767573 14 0.501858 13.8892 0.305919 13.6918Z" fill="#7220A3"/>
</svg>
