<svg width="16" height="17" viewBox="0 0 16 17" fill="none" xmlns="http://www.w3.org/2000/svg">
<path fill-rule="evenodd" clip-rule="evenodd" d="M7.90827 2.99747C7.40708 2.49628 6.59449 2.49628 6.09331 2.99747L1.5559 7.53488C1.54092 7.54986 1.52639 7.56512 1.5123 7.58064C1.50585 7.58683 1.49944 7.59311 1.49308 7.59947C0.99189 8.10066 0.99189 8.91324 1.49308 9.41443L6.03049 13.9518C6.53168 14.453 7.34426 14.453 7.84545 13.9518C8.34664 13.4507 8.34664 12.6381 7.84545 12.1369L5.33841 9.62984H13.5788C14.1989 9.62984 14.7017 9.12708 14.7017 8.50689C14.7017 7.8867 14.1989 7.38394 13.5788 7.38394H5.33677L7.90827 4.81244C8.40946 4.31125 8.40946 3.49866 7.90827 2.99747Z" fill="white"/>
</svg>
