<svg width="32" height="20" viewBox="0 0 32 20" fill="none" xmlns="http://www.w3.org/2000/svg">
<path d="M25.9578 15.495C26.1515 15.4438 26.3089 15.3358 26.4568 15.2204C27.0878 14.7289 27.5567 14.107 27.957 13.4295C29.3997 10.9858 30.2494 8.2439 30.416 5.41511C30.4331 5.12712 30.4347 4.83993 30.4439 4.55234C30.4451 4.50969 30.4339 4.4642 30.4722 4.41789C30.5868 4.45039 30.69 4.50522 30.7833 4.58565C31.9 5.55079 32.0891 7.38356 31.9683 8.73824C31.6817 11.9452 29.8662 15.3679 26.9512 17.0235C26.8841 17.0617 26.8162 17.0987 26.7475 17.1344C26.2973 17.3688 25.8295 17.5528 25.3481 17.7104C25.2573 17.7401 25.1665 17.7701 25.0765 17.7998C25.4734 17.7782 26.0224 17.7108 26.6442 17.5114C28.3069 16.9784 29.6313 15.7757 30.5509 14.3519C30.7771 14.0018 30.9799 13.6395 31.1782 13.2739C31.1903 13.252 31.2023 13.2288 31.2332 13.2223C31.2698 13.2231 31.2848 13.2515 31.2973 13.2796C31.7592 14.3203 31.6401 15.3874 30.9891 16.3277C29.7075 18.178 26.9995 19.2824 24.76 19.2913C22.6958 19.2995 20.6321 19.297 18.5679 19.2966C18.5029 19.2966 18.4042 19.3299 18.3863 19.2406C18.3672 19.1455 18.4725 19.1569 18.5329 19.1301C21.6646 17.7258 24.034 15.276 25.5784 12.2844C26.9203 9.68469 27.5946 6.74217 27.3318 3.83215C27.2477 2.89992 27.0703 1.9754 26.7975 1.0781C26.7812 1.02408 26.7583 0.971272 26.7475 0.916029C26.71 0.722677 26.7687 0.673934 26.9716 0.693432C27.4784 0.74177 27.9258 0.924966 28.3243 1.23083C29.0786 1.80967 29.3681 2.8593 29.5422 3.74157C29.8679 5.39399 29.5351 7.22433 29.139 8.84101C28.6238 10.9451 27.7542 13.0013 26.5001 14.7906C26.3664 14.9816 26.2119 15.1583 26.0682 15.3419C26.0299 15.3918 25.9949 15.4438 25.9578 15.495Z" fill="#999999"/>
<path d="M10.0008 10.8865C10.0108 10.8878 10.0207 10.8896 10.0297 10.8923C10.0297 10.8932 10.0293 10.8937 10.0288 10.8946C10.0216 10.9072 9.99497 10.9 10.0008 10.8865Z" fill="#999999"/>
<path d="M10.1992 11.864C10.2075 11.8654 10.2153 11.8677 10.2226 11.8709L10.2093 11.8791L10.1992 11.864Z" fill="#999999"/>
<path fill-rule="evenodd" clip-rule="evenodd" d="M14.5501 0.69952C13.5805 0.698614 12.6109 0.697707 11.6413 0.697707C8.16315 0.698113 4.68499 0.698113 1.20725 0.697301C1.1753 0.697301 1.14332 0.697096 1.11134 0.696891C1.00825 0.69623 0.90509 0.695569 0.802414 0.70177C0.415489 0.724517 0.110613 0.94752 0.0352274 1.32163C0.00399014 1.47802 0.000658093 1.63278 0.000658093 1.78876C3.34063e-05 5.87923 0.000111555 9.96993 0.000189706 14.0607C0.000215765 15.4248 0.000241825 16.7889 0.000241825 18.153C0.000241825 18.1732 0.000181424 18.1935 0.000120995 18.2138C-0.000135954 18.3001 -0.000393398 18.3865 0.00399014 18.4727C0.0227325 18.8476 0.223067 19.1303 0.553765 19.2351C0.712867 19.2859 0.879049 19.2989 1.04773 19.2989C1.42004 19.2985 1.79238 19.2979 2.16472 19.2974C3.40603 19.2955 4.64747 19.2936 5.88867 19.2989C7.00187 19.3038 8.11508 19.3004 9.22828 19.2971C11.2321 19.291 13.236 19.285 15.2398 19.3273C15.8038 19.3395 16.3686 19.3403 16.9308 19.2631C17.4948 19.1859 18.0366 19.0413 18.5535 18.8102C19.5281 18.3748 20.364 17.7407 21.1516 17.0457C21.5702 16.6764 21.9646 16.2812 22.3399 15.8673C22.843 15.3124 23.3028 14.7263 23.7247 14.1125C24.2616 13.3318 24.7472 12.5218 25.145 11.6619C26.6369 8.43624 26.9034 4.78368 26.0638 1.35413C25.9842 1.02795 25.8809 0.718423 25.484 0.684709C25.4627 0.682834 25.4415 0.680666 25.4203 0.678498C25.3588 0.672211 25.2973 0.665929 25.2353 0.666836C24.3165 0.677922 23.3977 0.683252 22.4789 0.688582L22.3065 0.689583C19.7212 0.704354 17.1357 0.701937 14.5501 0.69952ZM21.3362 8.10775C21.6619 8.3466 21.9018 8.68212 22.0192 9.06273C22.3545 10.1554 21.8505 11.5495 20.6431 11.8578C20.4486 11.9074 20.2483 11.9285 20.0484 11.9232C19.8489 11.9285 19.6485 11.9074 19.4536 11.8578C18.2466 11.5495 17.7422 10.1554 18.0775 9.06273C18.1945 8.68212 18.4344 8.3466 18.7606 8.10775C19.13 7.83722 19.5881 7.69546 20.0484 7.6849C20.5086 7.69546 20.9667 7.83722 21.3362 8.10775ZM20.0484 11.3622C20.6448 11.3561 20.9971 10.8001 21.1233 10.2826C21.2445 9.78374 21.2225 9.19678 20.9355 8.75239C20.7373 8.44449 20.4003 8.2617 20.048 8.25927C19.696 8.2617 19.3586 8.44409 19.1604 8.75239C18.8743 9.19718 18.8518 9.78414 18.9734 10.2826C19.0996 10.8001 19.4519 11.3561 20.0484 11.3622ZM8.11019 8.55459C8.10686 8.29502 8.0244 8.03384 7.78949 7.88801C7.56084 7.74625 7.25679 7.74909 7.07687 7.96478L7.07 7.9727L7.07 7.9727L7.07 7.9727C7.05441 7.99039 7.03232 8.01545 7.04021 8.03749C7.04599 8.05362 7.07061 8.05716 7.09398 8.06053C7.1077 8.0625 7.12098 8.06441 7.12976 8.06877C7.17058 8.08867 7.18682 8.12848 7.18557 8.17113C7.18447 8.2038 7.18392 8.42057 7.18307 8.75139L7.18141 9.34627L6.29948 9.3412L5.41546 9.33612C5.40422 9.19354 5.40005 9.0335 5.41046 8.85964C5.42004 8.69919 5.44128 8.53956 5.47335 8.38195C5.48752 8.3129 5.50376 8.24425 5.52209 8.17641C5.52886 8.1511 5.53969 8.12383 5.55082 8.09579C5.57257 8.04103 5.5955 7.98332 5.59164 7.93147C5.59081 7.92091 5.58831 7.91035 5.58164 7.90223C5.56582 7.88314 5.53541 7.88639 5.51126 7.89248C5.36132 7.92985 5.21554 8.00784 5.10059 8.10898C5.06519 8.13985 4.97064 8.22759 4.88526 8.37708C4.65869 8.77272 4.64078 9.33327 4.64078 9.33327C4.62912 9.6956 4.61454 10.43 5.01063 11.1925C5.01063 11.1925 5.28801 11.727 5.68494 11.8586C5.76324 11.8846 5.78448 11.8676 5.79114 11.859C5.81603 11.8279 5.77764 11.7784 5.75163 11.7449C5.74543 11.737 5.73993 11.7299 5.73616 11.7242C5.69993 11.6697 5.66911 11.6121 5.64245 11.5523C5.58747 11.4293 5.55082 11.2989 5.52375 11.1677C5.44087 10.768 5.38714 10.3634 5.3988 9.95517H7.18141V11.4894C7.18141 11.5909 7.22389 11.6888 7.3201 11.7368C7.37799 11.7656 7.4438 11.7758 7.50836 11.7835C7.62123 11.7973 7.7366 11.8046 7.84822 11.7839C7.91361 11.7717 7.979 11.7485 8.02773 11.7043C8.10645 11.6332 8.10769 11.5365 8.10769 11.4394C8.10769 11.084 8.10929 10.7285 8.11089 10.3731L8.11089 10.3725C8.11275 9.95756 8.11462 9.54265 8.11394 9.12774C8.11394 8.93682 8.11269 8.7455 8.11019 8.55459ZM5.66789 12.0512C4.9486 11.8461 4.66788 11.1027 4.5142 10.4581C4.48088 10.3175 4.44881 10.179 4.42965 10.0356C4.37217 9.6022 4.37467 9.12572 4.51878 8.70733L4.52095 8.70626L4.51957 8.70492L4.52166 8.7068L4.52991 8.69557L4.51957 8.70492L4.51878 8.70733C4.43069 8.72653 4.38136 8.78953 4.33225 8.85226L4.33224 8.85227L4.33223 8.85228L4.33223 8.85229L4.33222 8.85229C4.32004 8.86785 4.30787 8.8834 4.29512 8.89825C4.06063 9.17122 4.04231 9.49008 4.03106 9.80692C4.0044 10.5511 4.28304 11.0804 4.3451 11.1941C4.48504 11.4496 4.63748 11.6178 4.68246 11.6661C4.8424 11.8387 5.00316 11.9586 5.12645 12.0382C5.02857 12.0146 4.89029 11.9703 4.74244 11.8814C4.60541 11.7989 4.50753 11.7071 4.44339 11.6369C4.35051 11.5211 4.28512 11.4191 4.24264 11.3468C4.1281 11.1535 3.98566 10.9126 3.91319 10.5897L3.90473 10.5509C3.88837 10.4745 3.87378 10.4064 3.84239 10.4032C3.79004 10.398 3.73118 10.5777 3.71744 10.6197L3.71702 10.6209C3.67537 10.7489 3.66496 10.8671 3.66538 10.9297C3.66829 11.1734 3.85572 11.6474 4.30345 11.9691C4.30345 11.9691 4.69496 12.2502 5.36468 12.2717C5.39217 12.2726 5.55419 12.2689 5.67456 12.1848C5.73411 12.1446 5.77326 12.0812 5.66789 12.0512ZM17.2828 8.08297C17.3152 8.2422 17.3186 8.37463 17.3157 8.46399C17.3502 9.4868 17.3844 10.5096 17.4185 11.5328C17.4173 11.5499 17.4139 11.5735 17.4044 11.5999C17.3506 11.7498 17.1561 11.8233 17.0058 11.8253C16.8542 11.8273 16.673 11.7571 16.6089 11.6214C16.608 11.6198 16.5964 11.5934 16.5901 11.5641C16.5456 11.3557 16.5197 9.67812 16.5101 8.94696C16.0995 9.76749 15.778 10.3809 15.6297 10.6514C15.5993 10.707 15.5351 10.8187 15.4164 10.8569C15.3823 10.8683 15.3444 10.8744 15.3056 10.8748C15.2669 10.8744 15.229 10.8683 15.1949 10.8569C15.0762 10.8187 15.0116 10.707 14.9816 10.6514C14.8333 10.3809 14.5118 9.76749 14.1011 8.94696C14.0916 9.67772 14.0657 11.3557 14.0212 11.5641C14.0149 11.5934 14.0033 11.6198 14.0024 11.6214C13.9383 11.7571 13.7571 11.8273 13.6055 11.8253C13.4556 11.8233 13.2606 11.7498 13.2069 11.5999C13.1973 11.5735 13.194 11.5499 13.1928 11.5328C13.2273 10.5096 13.2615 9.48721 13.2956 8.46399C13.2927 8.37503 13.296 8.24261 13.3285 8.08297L13.3303 8.07293C13.3337 8.05262 13.3395 8.01768 13.3573 7.97817C13.3685 7.95258 13.4002 7.88475 13.4739 7.83844C13.5139 7.81407 13.5576 7.79944 13.6043 7.79985C13.6184 7.80003 13.6327 7.80053 13.647 7.80103H13.647H13.647L13.647 7.80103C13.6651 7.80166 13.6832 7.80229 13.7013 7.80229L13.7688 7.8031L13.8362 7.80391C13.867 7.8042 13.8977 7.80418 13.9285 7.80417C13.985 7.80414 14.0416 7.8041 14.0982 7.80594C14.1769 7.80879 14.2502 7.83478 14.3056 7.89206C14.3719 7.9599 14.4248 8.05657 14.5122 8.26373C14.5268 8.29826 14.5385 8.3271 14.5464 8.347L14.5479 8.35024L14.5479 8.35026C14.592 8.44334 15.0527 9.41505 15.2278 9.69925C15.2407 9.72078 15.2694 9.76668 15.3056 9.76505C15.3415 9.76668 15.3706 9.72078 15.3835 9.69925C15.5574 9.41815 16.0105 8.46178 16.062 8.35315L16.062 8.35307L16.0649 8.347C16.0728 8.3271 16.0845 8.29785 16.0991 8.26373C16.1865 8.05657 16.2394 7.9599 16.3057 7.89206C16.3615 7.83478 16.4348 7.80879 16.5131 7.80594C16.5696 7.80383 16.6264 7.80395 16.6832 7.80407C16.7138 7.80413 16.7444 7.8042 16.775 7.80391L16.8425 7.8031L16.91 7.80229C16.9277 7.80229 16.9456 7.80167 16.9636 7.80104C16.978 7.80054 16.9925 7.80003 17.007 7.79985C17.0537 7.79944 17.0978 7.81407 17.1374 7.83844C17.2111 7.88475 17.2428 7.95258 17.254 7.97817C17.2718 8.01768 17.2776 8.05262 17.281 8.07293L17.2828 8.08297ZM12.3746 7.92174C12.2893 7.81653 12.1435 7.81247 12.0031 7.80881C11.8703 7.80516 11.7012 7.80069 11.5954 7.91524C11.5366 7.97901 11.5204 8.05416 11.5154 8.09965L11.5079 10.3646C11.5092 10.4386 11.5017 10.5779 11.425 10.731C11.3442 10.8927 11.2297 10.9845 11.2005 11.0068C11.2005 11.0068 11.0056 11.1571 10.7507 11.177C10.7253 11.1791 10.6982 11.1799 10.6982 11.1799C10.6916 11.1803 10.6849 11.1803 10.6782 11.1803L10.6683 11.1801L10.6583 11.1799C10.6583 11.1799 10.6316 11.1791 10.6058 11.177C10.3509 11.1567 10.156 11.0068 10.156 11.0068C10.1264 10.9841 10.0123 10.8927 9.93147 10.731C9.85484 10.5779 9.84734 10.4386 9.84859 10.3646L9.84109 8.09965C9.83609 8.05416 9.82027 7.97901 9.76112 7.91524C9.65533 7.80069 9.48624 7.80516 9.35337 7.80881C9.21343 7.81247 9.06724 7.81653 8.98186 7.92174C8.91481 8.0042 8.92022 8.10615 8.92563 8.15043V10.521C8.92563 10.7416 8.99061 11.0336 9.2076 11.3111C9.45125 11.6226 9.79736 11.7616 9.90398 11.8001C10.1201 11.8785 10.333 11.9005 10.3979 11.9066C10.5108 11.9175 10.607 11.9179 10.6782 11.9159C10.7495 11.9179 10.8457 11.9175 10.9586 11.9066C11.0235 11.9001 11.2364 11.8781 11.4525 11.8001C11.5591 11.7616 11.9052 11.6226 12.1489 11.3111C12.3655 11.0336 12.4309 10.7416 12.4309 10.521V8.15043C12.4363 8.10656 12.4417 8.0046 12.3746 7.92174Z" fill="#999999"/>
</svg>
