<svg width="24" height="24" viewBox="0 0 24 24" fill="none" xmlns="http://www.w3.org/2000/svg">
<path d="M19.5 3.9532C17.5351 2.12105 14.8985 1 12 1C5.92487 1 1 5.92487 1 12C1 18.0751 5.92487 23 12 23C14.8985 23 17.5351 21.879 19.5 20.0468" stroke="#333333" stroke-width="1.5" stroke-linecap="round"/>
<path d="M15.6538 9.3913C15.7559 9.54493 15.788 9.72988 15.743 9.90547C15.6981 10.0811 15.5798 10.2329 15.4142 10.3276C15.2486 10.4223 15.0493 10.452 14.86 10.4103C14.6708 10.3687 14.5071 10.2589 14.4051 10.1053C14.3577 10.0567 14.3019 10.0159 14.2398 9.98464C14.096 9.90933 13.7821 9.80137 13.1983 9.90117C12.7994 9.96921 12.5921 10.2042 12.4649 10.5063C12.3873 10.6957 12.3427 10.8954 12.3329 11.0978V12.2319C12.3329 12.4725 12.4359 12.7033 12.6193 12.8734C12.8027 13.0435 13.0514 13.1391 13.3108 13.1391H13.5553C13.772 13.1391 13.9826 13.0722 14.154 12.9491C14.3253 12.8259 14.4477 12.6534 14.5019 12.4587H14.0442C13.9479 12.4587 13.8525 12.4411 13.7636 12.4069C13.6746 12.3727 13.5937 12.3226 13.5256 12.2594C13.4575 12.1962 13.4035 12.1212 13.3666 12.0387C13.3298 11.9561 13.3108 11.8676 13.3108 11.7783C13.3108 11.6889 13.3298 11.6004 13.3666 11.5179C13.4035 11.4353 13.4575 11.3603 13.5256 11.2971C13.5937 11.2339 13.6746 11.1838 13.7636 11.1496C13.8525 11.1154 13.9479 11.0978 14.0442 11.0978H15.2666C15.4611 11.0978 15.6476 11.1695 15.7852 11.2971C15.9227 11.4247 16 11.5978 16 11.7783V12.2319C16 12.5297 15.9368 12.8247 15.8139 13.0999C15.691 13.375 15.511 13.6251 15.284 13.8357C15.0569 14.0463 14.7874 14.2134 14.4908 14.3274C14.1942 14.4413 13.8763 14.5 13.5553 14.5H13.3108C12.6624 14.5 12.0406 14.261 11.5821 13.8357C11.1236 13.4103 10.8661 12.8334 10.8661 12.2319V11.0606L10.87 10.9881C10.892 10.6533 10.9696 10.3238 11.0998 10.0109C11.3394 9.4421 11.8655 8.74443 12.9333 8.56207C13.8261 8.41056 14.4901 8.55482 14.9556 8.79614C15.1805 8.91318 15.3458 9.04564 15.4573 9.15632C15.5262 9.22419 15.5884 9.29767 15.6431 9.37587L15.6489 9.38495L15.6519 9.38857L15.6528 9.39039L15.6538 9.3913ZM7.66641 8.88505C8.24924 8.22821 9.39924 8.61106 9.39924 9.46206V12.0051H9.64371C9.83822 12.0051 10.0248 12.0768 10.1623 12.2044C10.2999 12.332 10.3771 12.505 10.3771 12.6855C10.3771 12.866 10.2999 13.039 10.1623 13.1666C10.0248 13.2943 9.83822 13.3659 9.64371 13.3659H9.39924V13.8196C9.39924 14 9.32197 14.1731 9.18442 14.3007C9.04688 14.4283 8.86033 14.5 8.66582 14.5C8.4713 14.5 8.28476 14.4283 8.14721 14.3007C8.00967 14.1731 7.9324 14 7.9324 13.8196V13.3659H6.17513C5.18355 13.3659 4.63984 12.2954 5.2696 11.585L7.66641 8.88505ZM7.9324 12.0051V10.7259L6.79707 12.0051H7.9324Z" fill="#333333"/>
<rect x="19.7002" y="9" width="1.5" height="5" rx="0.75" fill="#333333"/>
<rect x="23" y="10.7" width="1.5" height="5" rx="0.75" transform="rotate(90 23 10.7)" fill="#333333"/>
</svg>
