<svg width="24" height="24" viewBox="0 0 24 24" fill="none" xmlns="http://www.w3.org/2000/svg">
<path d="M7.01066 22.1576C7.78334 22.7406 7.83176 23 14.0714 23C18.0472 23 20.5204 22.3208 20.8877 20.6307C20.9804 20.2077 20.9475 19.6598 20.9056 19.3706C21.415 19.014 22.232 18.3302 22.2752 17.2696C22.2924 16.8383 22.1132 16.4775 22.024 16.2055C22.4139 15.7966 23.0256 15.0843 22.9992 14.1492C22.9783 13.4246 22.4963 12.8615 22.1232 12.4884C22.2646 12.1658 22.3284 11.5409 22.3175 11.0518C22.2828 9.56984 21.1603 8.55633 19.4638 8.55633C18.2442 8.55633 15.681 8.57591 14.265 8.58728C14.6817 6.9017 15.1317 3.74759 14.2454 2.27904C13.8126 1.56025 12.9372 1 12.1563 1C10.7829 1 10.706 1.58877 10.3321 2.48434C8.17023 7.66276 4.95481 10.6291 2.63532 10.6291C2.51897 10.6291 2.40452 10.6587 2.30274 10.7152C2.20096 10.7717 2.11518 10.8532 2.05348 10.952C2.01025 11.0211 1 12.5052 1 15.7604C1 19.0634 2.41153 21.1259 2.4716 21.1991C2.60239 21.358 2.79702 21.4368 3.0023 21.4502C5.82742 21.6345 6.60079 21.8488 7.01066 22.1576Z" stroke="#333333" stroke-width="1.7"/>
</svg>
