<svg width="19" height="29" viewBox="0 0 19 29" fill="none" xmlns="http://www.w3.org/2000/svg">
<path fill-rule="evenodd" clip-rule="evenodd" d="M5 28.5H14C16.761 28.5 19 26.26 19 23.5V5.5C19 2.74 16.761 0.5 14 0.5H5C2.239 0.5 0 2.74 0 5.5V23.5C0 26.26 2.239 28.5 5 28.5ZM14 26.5H5C3.343 26.5 2 25.16 2 23.5V5.5C2 3.84 3.343 2.5 5 2.5H14C15.657 2.5 17 3.84 17 5.5V23.5C17 25.16 15.657 26.5 14 26.5Z" fill="#333333"/>
<path d="M7.13443 23C6.58243 23 6.13443 23.45 6.13443 24C6.13443 24.55 6.58243 25 7.13443 25H12C12.552 25 13 24.55 13 24C13 23.45 12.552 23 12 23H7.13443Z" fill="#333333"/>
</svg>
