<svg width="32" height="32" viewBox="0 0 32 32" fill="none" xmlns="http://www.w3.org/2000/svg">
<path d="M7.61919 13.3097L7.30706 14.1003L7.61919 13.3097ZM6.19966 11.9567L5.42009 12.2955L6.19966 11.9567ZM13.6692 11.9567L14.4488 12.2955L13.6692 11.9567ZM12.2497 13.3097L12.5618 14.1003L12.2497 13.3097ZM12.2497 6.1903L12.5618 5.39969L12.2497 6.1903ZM13.6692 7.54329L14.4488 7.2045L13.6692 7.54329ZM7.61919 6.1903L7.30706 5.39969L7.61919 6.1903ZM6.19966 7.54329L5.42009 7.2045L6.19966 7.54329ZM18.1311 8.9C17.6617 8.9 17.2811 9.28056 17.2811 9.75C17.2811 10.2194 17.6617 10.6 18.1311 10.6V8.9ZM26 10.6C26.4694 10.6 26.85 10.2194 26.85 9.75C26.85 9.28056 26.4694 8.9 26 8.9V10.6ZM21.2156 13.5C21.2156 13.9694 21.5961 14.35 22.0656 14.35C22.535 14.35 22.9156 13.9694 22.9156 13.5H21.2156ZM22.9156 6C22.9156 5.53056 22.535 5.15 22.0656 5.15C21.5961 5.15 21.2156 5.53056 21.2156 6H22.9156ZM7.61919 25.8097L7.30706 26.6003L7.61919 25.8097ZM6.19966 24.4567L5.42009 24.7955L6.19966 24.4567ZM13.6692 24.4567L14.4488 24.7955L13.6692 24.4567ZM12.2497 25.8097L12.5618 26.6003L12.2497 25.8097ZM12.2497 18.6903L12.5618 17.8997L12.2497 18.6903ZM13.6692 20.0433L14.4488 19.7045L13.6692 20.0433ZM7.61919 18.6903L7.30706 17.8997L7.61919 18.6903ZM6.19966 20.0433L5.42009 19.7045L6.19966 20.0433ZM19.7503 25.8097L19.4382 26.6003L19.7503 25.8097ZM18.3308 24.4567L17.5512 24.7955L18.3308 24.4567ZM25.8003 24.4567L26.5799 24.7955L25.8003 24.4567ZM24.3808 25.8097L24.6929 26.6003L24.3808 25.8097ZM24.3808 18.6903L24.6929 17.8997L24.3808 18.6903ZM25.8003 20.0433L26.5799 19.7045L25.8003 20.0433ZM19.7503 18.6903L19.4382 17.8997L19.7503 18.6903ZM18.3308 20.0433L17.5512 19.7045L18.3308 20.0433ZM9.93443 12.65C9.31227 12.65 8.88623 12.6496 8.55442 12.628C8.2295 12.6069 8.05542 12.5681 7.93132 12.5191L7.30706 14.1003C7.66498 14.2416 8.03745 14.298 8.4441 14.3244C8.84388 14.3504 9.33444 14.35 9.93443 14.35V12.65ZM5.15 9.75C5.15 10.3202 5.14949 10.7926 5.17713 11.1786C5.20537 11.5731 5.26606 11.9411 5.42009 12.2955L6.97923 11.6179C6.9336 11.5129 6.89446 11.36 6.87279 11.0572C6.85051 10.7459 6.85 10.3446 6.85 9.75H5.15ZM7.93132 12.5191C7.49008 12.3449 7.15225 12.0161 6.97923 11.6179L5.42009 12.2955C5.7795 13.1225 6.46291 13.767 7.30706 14.1003L7.93132 12.5191ZM13.0189 9.75C13.0189 10.3446 13.0183 10.7459 12.9961 11.0572C12.9744 11.36 12.9353 11.5129 12.8896 11.6179L14.4488 12.2955C14.6028 11.9411 14.6635 11.5731 14.6917 11.1786C14.7194 10.7926 14.7189 10.3202 14.7189 9.75H13.0189ZM9.93443 14.35C10.5344 14.35 11.025 14.3504 11.4247 14.3244C11.8314 14.298 12.2039 14.2416 12.5618 14.1003L11.9375 12.5191C11.8134 12.5681 11.6393 12.6069 11.3144 12.628C10.9826 12.6496 10.5566 12.65 9.93443 12.65V14.35ZM12.8896 11.6179C12.7166 12.0161 12.3788 12.3449 11.9375 12.5191L12.5618 14.1003C13.4059 13.767 14.0894 13.1225 14.4488 12.2955L12.8896 11.6179ZM9.93443 6.85C10.5566 6.85 10.9826 6.85042 11.3144 6.872C11.6393 6.89313 11.8134 6.93192 11.9375 6.98092L12.5618 5.39969C12.2039 5.25838 11.8314 5.20202 11.4247 5.17558C11.025 5.14958 10.5344 5.15 9.93443 5.15V6.85ZM14.7189 9.75C14.7189 9.17977 14.7194 8.70744 14.6917 8.32142C14.6635 7.92692 14.6028 7.55894 14.4488 7.2045L12.8896 7.88208C12.9353 7.98707 12.9744 8.14002 12.9961 8.4428C13.0183 8.75406 13.0189 9.15538 13.0189 9.75H14.7189ZM11.9375 6.98092C12.3788 7.15512 12.7166 7.48394 12.8896 7.88208L14.4488 7.2045C14.0894 6.3775 13.4059 5.73295 12.5618 5.39969L11.9375 6.98092ZM9.93443 5.15C9.33444 5.15 8.84388 5.14958 8.4441 5.17558C8.03745 5.20202 7.66498 5.25838 7.30706 5.39969L7.93132 6.98092C8.05542 6.93192 8.2295 6.89313 8.55442 6.872C8.88623 6.85042 9.31227 6.85 9.93443 6.85V5.15ZM6.85 9.75C6.85 9.15538 6.85051 8.75406 6.87279 8.4428C6.89446 8.14002 6.9336 7.98707 6.97923 7.88208L5.42009 7.2045C5.26606 7.55894 5.20537 7.92692 5.17713 8.32142C5.14949 8.70744 5.15 9.17977 5.15 9.75H6.85ZM7.30706 5.39969C6.46291 5.73295 5.7795 6.3775 5.42009 7.2045L6.97923 7.88208C7.15225 7.48394 7.49008 7.15512 7.93132 6.98092L7.30706 5.39969ZM18.1311 10.6H26V8.9H18.1311V10.6ZM22.9156 13.5V6H21.2156V13.5H22.9156ZM9.93443 25.15C9.31227 25.15 8.88623 25.1496 8.55442 25.128C8.2295 25.1069 8.05542 25.0681 7.93132 25.0191L7.30706 26.6003C7.66498 26.7416 8.03745 26.798 8.4441 26.8244C8.84388 26.8504 9.33444 26.85 9.93443 26.85V25.15ZM5.15 22.25C5.15 22.8202 5.14949 23.2926 5.17713 23.6786C5.20537 24.0731 5.26606 24.4411 5.42009 24.7955L6.97923 24.1179C6.9336 24.0129 6.89446 23.86 6.87279 23.5572C6.85051 23.2459 6.85 22.8446 6.85 22.25H5.15ZM7.93132 25.0191C7.49008 24.8449 7.15225 24.5161 6.97923 24.1179L5.42009 24.7955C5.7795 25.6225 6.46291 26.267 7.30706 26.6003L7.93132 25.0191ZM13.0189 22.25C13.0189 22.8446 13.0183 23.2459 12.9961 23.5572C12.9744 23.86 12.9353 24.0129 12.8896 24.1179L14.4488 24.7955C14.6028 24.4411 14.6635 24.0731 14.6917 23.6786C14.7194 23.2926 14.7189 22.8202 14.7189 22.25H13.0189ZM9.93443 26.85C10.5344 26.85 11.025 26.8504 11.4247 26.8244C11.8314 26.798 12.2039 26.7416 12.5618 26.6003L11.9375 25.0191C11.8134 25.0681 11.6393 25.1069 11.3144 25.128C10.9826 25.1496 10.5566 25.15 9.93443 25.15V26.85ZM12.8896 24.1179C12.7166 24.5161 12.3788 24.8449 11.9375 25.0191L12.5618 26.6003C13.4059 26.267 14.0894 25.6225 14.4488 24.7955L12.8896 24.1179ZM9.93443 19.35C10.5566 19.35 10.9826 19.3504 11.3144 19.372C11.6393 19.3931 11.8134 19.4319 11.9375 19.4809L12.5618 17.8997C12.2039 17.7584 11.8314 17.702 11.4247 17.6756C11.025 17.6496 10.5344 17.65 9.93443 17.65V19.35ZM14.7189 22.25C14.7189 21.6798 14.7194 21.2074 14.6917 20.8214C14.6635 20.4269 14.6028 20.0589 14.4488 19.7045L12.8896 20.3821C12.9353 20.4871 12.9744 20.64 12.9961 20.9428C13.0183 21.2541 13.0189 21.6554 13.0189 22.25H14.7189ZM11.9375 19.4809C12.3788 19.6551 12.7166 19.9839 12.8896 20.3821L14.4488 19.7045C14.0894 18.8775 13.4059 18.233 12.5618 17.8997L11.9375 19.4809ZM9.93443 17.65C9.33444 17.65 8.84388 17.6496 8.4441 17.6756C8.03745 17.702 7.66498 17.7584 7.30706 17.8997L7.93132 19.4809C8.05542 19.4319 8.2295 19.3931 8.55442 19.372C8.88623 19.3504 9.31227 19.35 9.93443 19.35V17.65ZM6.85 22.25C6.85 21.6554 6.85051 21.2541 6.87279 20.9428C6.89446 20.64 6.9336 20.4871 6.97923 20.3821L5.42009 19.7045C5.26606 20.0589 5.20537 20.4269 5.17713 20.8214C5.14949 21.2074 5.15 21.6798 5.15 22.25H6.85ZM7.30706 17.8997C6.46291 18.233 5.7795 18.8775 5.42009 19.7045L6.97923 20.3821C7.15225 19.9839 7.49008 19.6551 7.93132 19.4809L7.30706 17.8997ZM22.0656 25.15C21.4434 25.15 21.0174 25.1496 20.6856 25.128C20.3607 25.1069 20.1866 25.0681 20.0625 25.0191L19.4382 26.6003C19.7961 26.7416 20.1686 26.798 20.5753 26.8244C20.975 26.8504 21.4656 26.85 22.0656 26.85V25.15ZM17.2811 22.25C17.2811 22.8202 17.2806 23.2926 17.3083 23.6786C17.3365 24.0731 17.3972 24.4411 17.5512 24.7955L19.1104 24.1179C19.0647 24.0129 19.0256 23.86 19.0039 23.5572C18.9817 23.2459 18.9811 22.8446 18.9811 22.25H17.2811ZM20.0625 25.0191C19.6212 24.8449 19.2834 24.5161 19.1104 24.1179L17.5512 24.7955C17.9106 25.6225 18.5941 26.267 19.4382 26.6003L20.0625 25.0191ZM25.15 22.25C25.15 22.8446 25.1495 23.2459 25.1272 23.5572C25.1055 23.86 25.0664 24.0129 25.0208 24.1179L26.5799 24.7955C26.7339 24.4411 26.7946 24.0731 26.8229 23.6786C26.8505 23.2926 26.85 22.8202 26.85 22.25H25.15ZM22.0656 26.85C22.6656 26.85 23.1561 26.8504 23.5559 26.8244C23.9626 26.798 24.335 26.7416 24.6929 26.6003L24.0687 25.0191C23.9446 25.0681 23.7705 25.1069 23.4456 25.128C23.1138 25.1496 22.6877 25.15 22.0656 25.15V26.85ZM25.0208 24.1179C24.8477 24.5161 24.5099 24.8449 24.0687 25.0191L24.6929 26.6003C25.5371 26.267 26.2205 25.6225 26.5799 24.7955L25.0208 24.1179ZM22.0656 19.35C22.6877 19.35 23.1138 19.3504 23.4456 19.372C23.7705 19.3931 23.9446 19.4319 24.0687 19.4809L24.6929 17.8997C24.335 17.7584 23.9626 17.702 23.5559 17.6756C23.1561 17.6496 22.6656 17.65 22.0656 17.65V19.35ZM26.85 22.25C26.85 21.6798 26.8505 21.2074 26.8229 20.8214C26.7946 20.4269 26.7339 20.0589 26.5799 19.7045L25.0208 20.3821C25.0664 20.4871 25.1055 20.64 25.1272 20.9428C25.1495 21.2541 25.15 21.6554 25.15 22.25H26.85ZM24.0687 19.4809C24.5099 19.6551 24.8477 19.9839 25.0208 20.3821L26.5799 19.7045C26.2205 18.8775 25.5371 18.233 24.6929 17.8997L24.0687 19.4809ZM22.0656 17.65C21.4656 17.65 20.975 17.6496 20.5753 17.6756C20.1686 17.702 19.7961 17.7584 19.4382 17.8997L20.0625 19.4809C20.1866 19.4319 20.3607 19.3931 20.6856 19.372C21.0174 19.3504 21.4434 19.35 22.0656 19.35V17.65ZM18.9811 22.25C18.9811 21.6554 18.9817 21.2541 19.0039 20.9428C19.0256 20.64 19.0647 20.4871 19.1104 20.3821L17.5512 19.7045C17.3972 20.0589 17.3365 20.4269 17.3083 20.8214C17.2806 21.2074 17.2811 21.6798 17.2811 22.25H18.9811ZM19.4382 17.8997C18.5941 18.233 17.9106 18.8775 17.5512 19.7045L19.1104 20.3821C19.2834 19.9839 19.6212 19.6551 20.0625 19.4809L19.4382 17.8997Z" fill="#333333"/>
</svg>
