<svg width="24" height="24" viewBox="0 0 24 24" fill="none" xmlns="http://www.w3.org/2000/svg">
<path d="M7.55271 2.84837C7.35357 2.43856 6.85802 2.26513 6.46429 2.49442C5.03653 3.32589 3.81118 4.4703 2.88282 5.84557C1.80025 7.44928 1.15986 9.31018 1.02625 11.2405C0.892651 13.1708 1.27057 15.1021 2.12188 16.8397C2.97319 18.5773 4.26776 20.0595 5.87495 21.1369C7.48214 22.2143 9.34509 22.8487 11.2758 22.9761C13.2065 23.1035 15.1367 22.7194 16.8715 21.8625C18.6063 21.0056 20.0844 19.7063 21.1566 18.0956C22.0761 16.7144 22.6692 15.1461 22.8959 13.5096C22.9585 13.0582 22.6098 12.6657 22.155 12.6372C21.7003 12.6087 21.3122 12.9551 21.2437 13.4056C21.039 14.7524 20.5417 16.0417 19.7831 17.1813C18.8717 18.5503 17.6154 19.6548 16.1408 20.3831C14.6662 21.1115 13.0255 21.438 11.3844 21.3297C9.74333 21.2214 8.15982 20.6822 6.79371 19.7664C5.42759 18.8506 4.32721 17.5907 3.6036 16.1137C2.87999 14.6368 2.55875 12.9951 2.67232 11.3544C2.78588 9.71365 3.33021 8.13189 4.2504 6.76873C5.01632 5.6341 6.02007 4.68434 7.18812 3.98324C7.57879 3.74876 7.75186 3.25818 7.55271 2.84837Z" fill="#333333"/>
<path d="M21.8031 10.4764C21.5374 9.12332 21.0078 7.83589 20.2445 6.68755C19.4811 5.53921 18.4991 4.55246 17.3545 3.78364C16.2098 3.01482 14.925 2.47898 13.5732 2.20672C12.2215 1.93445 10.8294 1.9311 9.47635 2.19685L11.5 12.5L21.8031 10.4764Z" stroke="#333333" stroke-width="1.5" stroke-linejoin="round"/>
</svg>
