<svg width="36" height="16" viewBox="0 0 36 16" fill="none" xmlns="http://www.w3.org/2000/svg">
<path d="M8 16C12.87 16 16.44 12 18 9.81C19.56 12 23.13 16 28 16C30.1217 16 32.1566 15.1571 33.6569 13.6569C35.1571 12.1566 36 10.1217 36 8C36 5.87827 35.1571 3.84344 33.6569 2.34315C32.1566 0.842854 30.1217 0 28 0C23.13 0 19.56 4 18 6.19C16.44 4 12.87 0 8 0C5.87827 0 3.84344 0.842854 2.34315 2.34315C0.842855 3.84344 0 5.87827 0 8C0 10.1217 0.842855 12.1566 2.34315 13.6569C3.84344 15.1571 5.87827 16 8 16ZM28 2C29.5913 2 31.1174 2.63214 32.2426 3.75736C33.3679 4.88258 34 6.4087 34 8C34 9.5913 33.3679 11.1174 32.2426 12.2426C31.1174 13.3679 29.5913 14 28 14C23.54 14 20.19 9.52 19.18 8C20.19 6.49 23.53 2 28 2ZM8 2C12.46 2 15.81 6.48 16.82 8C15.82 9.52 12.47 14 8 14C6.4087 14 4.88258 13.3679 3.75736 12.2426C2.63214 11.1174 2 9.5913 2 8C2 6.4087 2.63214 4.88258 3.75736 3.75736C4.88258 2.63214 6.4087 2 8 2Z" fill="#7220A3"/>
</svg>
