<svg width="16" height="18" viewBox="0 0 16 18" fill="none" xmlns="http://www.w3.org/2000/svg">
<path fill-rule="evenodd" clip-rule="evenodd" d="M15.3687 9.61059C15.3687 12.4456 14.7366 14.5585 13.4729 15.9353C12.2088 17.3118 10.2561 18 7.62355 18C5.16381 18 3.2978 17.3118 2.02552 15.9353C0.752607 14.5588 0.116943 12.4827 0.116943 9.70728V0.395558C0.117195 0.290729 0.157941 0.190267 0.23027 0.116141C0.302599 0.0420154 0.400627 0.000257884 0.502916 0L4.96304 0C5.06528 0.000428539 5.16321 0.0422409 5.2355 0.11633C5.3078 0.190418 5.3486 0.290781 5.34901 0.395558V9.91076C5.34901 11.044 5.5536 11.9162 5.97006 12.5315C6.28177 12.9551 6.72624 13.2558 7.2288 13.3831C7.73135 13.5104 8.26133 13.4565 8.72969 13.2305C9.04017 13.0808 9.31321 12.8605 9.528 12.5862C9.93526 12.009 10.1379 11.1583 10.1367 10.0338V8.25202H15.3687V9.61059Z" fill="#999999"/>
<path fill-rule="evenodd" clip-rule="evenodd" d="M14.966 7.2112H10.1387V0.41444C10.1389 0.304603 10.1816 0.199339 10.2574 0.121672C10.3332 0.0440049 10.4359 0.000257936 10.5431 0L11.2658 0C11.2666 1.11454 11.6993 2.18312 12.4688 2.97075C13.2384 3.75864 14.2817 4.20125 15.3695 4.20138H15.3707V7.2112H14.966Z" fill="#999999"/>
<path fill-rule="evenodd" clip-rule="evenodd" d="M12.2939 0H14.9665C15.0737 0.00034343 15.1763 0.0441178 15.2521 0.121766C15.3279 0.199415 15.3706 0.30463 15.3709 0.41444V3.15567C14.5551 3.1555 13.7727 2.82335 13.1957 2.23222C12.6187 1.64109 12.2944 0.839365 12.2939 0.00325562V0Z" fill="#999999"/>
</svg>
