<svg width="20" height="21" viewBox="0 0 20 21" fill="none" xmlns="http://www.w3.org/2000/svg">
<path d="M8.3033 6.21443C8.27207 6.60943 8.12285 6.90176 7.88514 7.12971C7.48781 7.5073 7.06618 7.86054 6.64629 8.21725C6.56127 8.29034 6.52483 8.3321 6.57862 8.44868C6.73131 8.77929 6.84409 9.12731 7.00719 9.45096C7.3438 10.1226 7.76542 10.7421 8.24084 11.325C9.26107 12.5744 10.5433 13.4531 12.0424 14.0239C12.1049 14.0482 12.1726 14.0639 12.2316 14.097C12.3131 14.1422 12.3565 14.1109 12.4103 14.05C12.8041 13.6028 13.1963 13.1538 13.604 12.7188C13.7949 12.5152 14.0447 12.3743 14.331 12.3725C14.5219 12.3725 14.7197 12.416 14.9036 12.4752C15.5369 12.6805 16.1147 13.0094 16.689 13.34C17.6086 13.8725 18.4952 14.4589 19.361 15.0766C19.6352 15.2732 19.8365 15.5273 19.9423 15.8509C20.036 16.1363 20.0186 16.406 19.8677 16.6757C19.6439 17.076 19.3593 17.4257 19.0401 17.7494C18.0649 18.736 17.0013 19.613 15.8197 20.3403C15.589 20.483 15.3304 20.6013 15.0702 20.6622C14.8724 20.7092 14.6468 20.6622 14.4369 20.6327C13.1754 20.4621 12.0129 19.9888 10.8816 19.432C9.52307 18.7603 8.28075 17.9095 7.10782 16.9524C6.09626 16.1259 5.15411 15.2263 4.29697 14.2414C3.22122 13.0094 2.26344 11.6904 1.48959 10.2444C1.07491 9.46836 0.717478 8.66793 0.434657 7.83618C0.20042 7.14711 0.0425265 6.4389 0.000884321 5.71155C-0.00605605 5.59322 0.0286458 5.46098 0.0772284 5.35135C0.287175 4.87458 0.580405 4.44652 0.884046 4.02716C1.54338 3.11362 2.24956 2.23837 3.0772 1.471C3.33226 1.23435 3.61682 1.02728 3.89964 0.821949C4.33341 0.508736 4.76371 0.593999 5.18361 0.86545C5.43866 1.03076 5.62085 1.26741 5.78395 1.5145C6.2958 2.29231 6.80765 3.07012 7.29001 3.86707C7.64917 4.46218 7.97537 5.07816 8.18879 5.74635C8.24257 5.91514 8.2738 6.09088 8.3033 6.21443ZM12.6671 15.5656C12.6393 15.5621 12.6254 15.5604 12.6115 15.5569C12.0685 15.4333 11.5427 15.2611 11.0361 15.0296C9.22464 14.2031 7.72205 13.0024 6.60118 11.3407C5.93143 10.3471 5.38488 9.29262 5.1437 8.10241C5.12288 7.99626 5.12808 7.91796 5.20616 7.8414C5.26515 7.78397 5.312 7.71611 5.36579 7.65347C5.82038 7.13667 6.37214 6.72601 6.88226 6.26837C6.96728 6.19181 6.97422 6.14309 6.92911 6.04738C6.36 4.85369 5.71107 3.70525 4.95804 2.61596C4.82791 2.42803 4.68737 2.24707 4.55203 2.06436C4.49651 1.98954 4.44099 1.97736 4.37332 2.0574C4.31606 2.12526 4.24839 2.18442 4.18419 2.24533C3.62376 2.77257 3.09282 3.32591 2.6174 3.92972C2.20619 4.45348 1.821 5.0016 1.41672 5.53232C1.32129 5.65761 1.3022 5.77941 1.32476 5.92906C1.42713 6.63205 1.64228 7.30371 1.88693 7.96842C2.19925 8.81236 2.6174 9.60061 3.08241 10.368C3.74174 11.4555 4.50518 12.4648 5.33803 13.4235C5.73016 13.876 6.15699 14.2971 6.58209 14.7216C7.57456 15.71 8.6642 16.5783 9.84059 17.3352C11.3137 18.2836 12.8735 19.0301 14.6156 19.3346C14.8186 19.3694 14.9834 19.3572 15.1639 19.2354C15.851 18.7725 16.5138 18.2766 17.1297 17.7215C17.5982 17.2987 18.0354 16.841 18.4848 16.3973C18.6878 16.1972 18.6861 16.192 18.4536 16.0232C17.2269 15.1236 15.9204 14.3649 14.5444 13.7194C14.4906 13.6933 14.4577 13.6967 14.4178 13.7455C14.2321 13.9682 14.0395 14.1822 13.8573 14.4067C13.5294 14.8086 13.1876 15.1967 12.7677 15.5064C12.7347 15.5308 12.6966 15.5482 12.6688 15.5656H12.6671Z" fill="black"/>
</svg>
