<svg width="30" height="31" viewBox="0 0 30 31" fill="none" xmlns="http://www.w3.org/2000/svg">
<path fill-rule="evenodd" clip-rule="evenodd" d="M12.8085 30.4054V19.5549H9.42404V15.367H12.8085C12.8085 11.8098 12.3214 7.79851 16.6595 6.5004C18.0475 6.08528 19.6209 6.25958 21.041 6.39719C22.3947 6.52792 22.1226 6.37655 22.1226 7.73658V10.2204H19.4654C18.0201 10.2204 17.0482 10.9543 17.0482 12.4634L17.0619 15.3372C17.4827 15.4541 20.7688 15.3693 21.464 15.3693L20.8169 19.5113C20.1308 19.6214 18.665 19.5572 17.8989 19.5572L17.892 30.4076C19.8564 29.8412 21.1919 29.4329 22.9344 28.3068C24.3339 27.4032 25.658 26.2197 26.6939 24.9193C29.1431 21.8507 30.2979 17.8852 29.9343 13.9771C29.2071 6.25958 22.8109 0.330931 14.9604 0.31717C2.29381 0.291942 -4.65576 15.3418 3.54469 25.1969C6.16307 28.3504 8.92552 29.5017 12.8085 30.4054Z" fill="#652D86"/>
</svg>
