<svg width="30" height="31" viewBox="0 0 30 31" fill="none" xmlns="http://www.w3.org/2000/svg">
<path fill-rule="evenodd" clip-rule="evenodd" d="M29.968 14.1468C29.7142 10.3941 27.8161 6.57258 24.9828 4.09985C21.7539 1.28533 18.1043 0.0627279 13.8257 0.360924C6.0096 0.899972 0.219529 7.35707 0 15.0161V15.8878C0.00686028 16.108 0.0205808 16.3374 0.0320146 16.5576C0.569403 24.3726 7.09124 30.192 14.6947 30.4076H15.5317C15.7581 30.4008 15.9799 30.387 16.1994 30.3755C24.0224 29.8296 29.8125 23.2555 30 15.5965V14.8303C29.9931 14.6032 29.9863 14.3762 29.968 14.1468ZM20.997 23.3725C19.5838 24.0423 18.7034 23.8336 17.2559 23.9643C16.1537 24.0629 14.1253 24.0629 13.0162 23.9895C10.8964 23.8473 8.25749 24.0148 7.01349 21.37C6.44866 20.1795 6.4944 18.9248 6.38463 17.6448C6.3389 17.0393 6.38463 16.1699 6.38463 15.5322C6.38463 13.7775 6.28173 11.0662 6.92202 9.5362C7.32449 8.58656 8.06997 7.78143 9.00297 7.33872C10.4093 6.66892 11.292 6.8639 12.7441 6.73315C13.4118 6.67351 14.1436 6.70792 14.8251 6.70792C15.5065 6.70792 16.3023 6.67581 16.9838 6.72168C18.3055 6.80655 19.5381 6.7148 20.7958 7.24926C21.7425 7.65297 22.5452 8.40076 22.9865 9.33664C23.6474 10.729 23.4736 11.6442 23.5902 13.0824L23.6108 17.3535C23.5079 19.5258 23.5856 22.1384 20.9993 23.3748L20.997 23.3725Z" fill="#652D86"/>
<path fill-rule="evenodd" clip-rule="evenodd" d="M22.0515 12.6306C21.9417 11.564 22.1041 10.6809 21.4546 9.69913C20.3204 7.98794 17.8255 8.23567 15.8223 8.23567C14.6561 8.24255 13.4555 8.16456 12.303 8.2999C11.4798 8.39165 10.4096 8.18291 9.36682 8.87794C7.6609 10.0088 7.90787 12.5136 7.90787 14.5276C7.90787 15.647 7.84384 16.9912 7.94674 18.0784C8.05651 19.1382 7.90101 20.0282 8.54359 21.0054C9.67782 22.7211 12.1727 22.4688 14.1827 22.4688C15.2712 22.4688 16.6662 22.5468 17.7226 22.4367C18.8111 22.3266 19.6275 22.4895 20.6268 21.8265C22.3327 20.7026 22.0926 18.2046 22.0926 16.1769C22.0926 15.0644 22.1567 13.7202 22.0538 12.6329L22.0515 12.6306ZM15.5113 19.7506C13.14 20.0374 10.9035 18.2551 10.604 15.881C10.2998 13.4816 12.1338 11.2383 14.4869 10.9584C16.8971 10.6648 19.0901 12.4334 19.3805 14.8396C19.6664 17.2573 17.9102 19.457 15.5113 19.7483V19.7506ZM18.571 10.8827C18.4681 10.3368 18.9598 9.79776 19.4652 9.71977C20.03 9.62802 20.5354 10.0845 20.6131 10.6098C20.8075 11.8507 18.8363 12.2751 18.571 10.8827Z" fill="#652D86"/>
<path fill-rule="evenodd" clip-rule="evenodd" d="M14.4755 12.5343C10.4233 13.5367 12.1361 18.9317 15.5525 18.2046C17.0618 17.8789 18.1709 16.358 17.8416 14.7983C17.5168 13.2843 16.0076 12.1512 14.4777 12.5365L14.4755 12.5343Z" fill="#652D86"/>
</svg>
