<svg width="20" height="21" viewBox="0 0 20 21" fill="none" xmlns="http://www.w3.org/2000/svg">
<path fill-rule="evenodd" clip-rule="evenodd" d="M9.58857 0.47998H10.2857C10.9886 0.508639 11.6971 0.606075 12.4514 0.766558C12.7543 0.829603 13.08 0.938502 13.3829 1.04167C14.2629 1.33971 15.0171 1.78677 15.7714 2.29114L17.3943 3.72402C17.7886 4.11377 18.3714 4.93338 18.6686 5.46068C18.9543 5.95359 19.2514 6.56686 19.44 7.11709C19.7714 8.09718 19.9657 9.11739 20 10.1433V10.877C19.9771 11.559 19.88 12.2468 19.7143 12.9231C19.6286 13.2613 19.5371 13.5421 19.4286 13.8574C19.3314 14.1382 19.2057 14.4649 19.0743 14.7171C18.8286 15.2043 18.5143 15.829 18.1943 16.2589C18.0171 16.4996 17.8629 16.7289 17.6686 16.9467C17.4343 17.2103 17.1943 17.5083 16.9257 17.7319C16.7143 17.9038 16.4686 18.1732 16.0971 18.4712C15.9829 18.5629 15.8857 18.6203 15.76 18.7177C15.2571 19.0845 14.8114 19.3195 14.2343 19.6118C12.9143 20.2767 11.4743 20.5403 9.76571 20.5403C7.82857 20.5403 5.65143 19.7207 4.26286 18.6948C3.69714 18.2706 3.42857 18.0586 2.95429 17.5771C2.49714 17.1243 1.90286 16.4194 1.57714 15.8634L0.937143 14.7056C0.268571 13.3587 0 11.9488 0 10.1949C0 8.96264 0.394286 7.31769 0.937143 6.24016C1.39429 5.32885 1.93714 4.429 2.66857 3.7011L3.11429 3.25404C3.82857 2.59491 4.16 2.3198 5.04 1.80969C5.29714 1.66067 5.54857 1.53458 5.83429 1.39703C6.33714 1.14484 7.04571 0.904114 7.62286 0.760825C8.30857 0.59461 8.95428 0.502907 9.58857 0.47998ZM12.0686 19.0902C12.16 18.9584 12.2743 18.8667 12.3943 18.7464C12.4571 18.6833 12.5086 18.6375 12.5714 18.5744L13.3543 17.5943C13.8286 16.9638 14.0571 16.5225 14.4171 15.8405H16.9943C16.9371 16.0468 16.2 16.7747 16.0457 16.9237C15.72 17.2562 15.3086 17.5829 14.92 17.835C14.2686 18.2706 12.7429 19.0788 12.0686 19.0902ZM7.03429 15.8405H9.45143V18.7406C9.12571 18.5629 8.34857 17.7032 8.11428 17.4166C7.90286 17.1645 7.72571 16.9295 7.53143 16.6658L7.03429 15.8405ZM10.6229 18.7406V15.8405H13.0457C12.6343 16.6257 11.7371 17.8121 10.9886 18.4369C10.8229 18.5744 10.8343 18.6317 10.6229 18.7406ZM8.00571 19.0902C7.39429 19.0788 5.73143 18.2993 5.13143 17.858L4.26857 17.1988C3.81714 16.8148 3.33714 16.3277 3.00571 15.8405H5.66286C6.08571 16.6372 6.25714 17.004 6.85714 17.7777C7.11428 18.1044 7.37143 18.4311 7.66857 18.7292C7.78857 18.8553 7.91428 18.9527 8.00571 19.0902ZM17.7714 14.6655H14.92L15.1771 13.8631C15.4114 13.0378 15.6229 11.9316 15.6229 11.0604H18.7886C18.7886 12.1952 18.2686 13.7255 17.7714 14.6655ZM1.21143 11.0604H4.45143C4.45143 12.0519 4.71429 13.3129 5.02286 14.2471C5.06857 14.3732 5.11429 14.5738 5.15429 14.6655H2.22857C1.73143 13.7255 1.21143 12.1895 1.21143 11.0604ZM13.5543 14.6655H10.6229V11.0604H14.4514C14.4514 11.1807 14.4229 11.4043 14.4057 11.5648C14.3943 11.6794 14.3657 11.943 14.3486 12.0519C14.2457 12.6709 14.1143 13.3071 13.92 13.8975L13.7029 14.4993C13.6629 14.6025 13.68 14.6655 13.5543 14.6655ZM5.62286 11.0604H9.45143V14.6655H6.52571C6.39428 14.6655 6.39428 14.5394 6.31428 14.3273C6.25143 14.1783 6.21714 14.0752 6.16571 13.9261C5.89143 13.0951 5.72571 12.2239 5.66286 11.3355C5.65143 11.2151 5.62857 11.1922 5.62286 11.0604ZM10.6229 6.35479H13.5543C13.8229 6.35479 14.28 8.59009 14.3314 8.87093C14.3886 9.1919 14.3829 9.58737 14.4514 9.88541H10.6229V6.35479ZM6.52571 6.35479H9.45143V9.88541H5.62286C5.69143 9.59884 5.69143 9.20336 5.74286 8.90532C5.79429 8.59582 5.84571 8.29205 5.92 7.98828L6.16 7.12855C6.25714 6.89356 6.38286 6.35479 6.52571 6.35479ZM14.92 6.35479H17.8114C17.8457 6.50381 17.9143 6.60125 17.9829 6.73881L18.4514 7.94816C18.6 8.44107 18.7886 9.28934 18.7886 9.88541H15.6229C15.6229 9.4097 15.5029 8.45253 15.3943 7.99974C15.3314 7.75902 15.0343 6.58979 14.92 6.35479ZM4.45143 9.88541H1.21143C1.21143 9.26641 1.4 8.49265 1.54857 7.98828C1.59429 7.81633 1.62857 7.7017 1.67429 7.56988L2.00571 6.76173C2.07429 6.61271 2.14857 6.52101 2.18857 6.35479H5.15429C5.02857 6.62418 4.77143 7.66158 4.68571 7.99974C4.57714 8.45253 4.45143 9.4097 4.45143 9.88541ZM10.6229 2.28541C10.8343 2.39431 10.8229 2.44589 10.9886 2.58345C11.6686 3.1566 12.3314 4.00487 12.8057 4.76143C12.88 4.87606 13.0114 5.04801 13.0457 5.17983H10.6229V2.28541ZM9.45143 2.28541V5.17983H7.03429C7.14857 4.74997 8.38857 3.25404 8.74286 2.89868L9.45143 2.28541ZM12.0686 1.93006C12.7029 1.94152 14.3314 2.72674 14.9314 3.1738C15.1314 3.32282 15.3371 3.44318 15.52 3.60366C15.6229 3.7011 15.6857 3.74122 15.7943 3.83865C16.2629 4.27425 16.6343 4.58375 17.0343 5.17983H14.4171C14.3371 5.03654 14.2743 4.89899 14.1943 4.7385C14.0229 4.40034 13.5886 3.74695 13.3771 3.44318C13.3086 3.34001 13.2914 3.34001 13.2229 3.24831C12.9657 2.91588 12.7086 2.58918 12.4114 2.29114C12.2914 2.17078 12.1657 2.06761 12.0686 1.93006ZM5.66286 5.17983H2.97143C3.2 4.83594 3.66857 4.38315 3.95429 4.09657C4.30857 3.74122 4.70857 3.43745 5.12571 3.15087C5.32571 3.01332 5.53714 2.89868 5.76 2.76686C6.32 2.43443 7.39429 2.04469 8.04571 1.88994C7.98857 1.97591 7.08571 2.88149 6.59429 3.60939C6.53714 3.69537 6.50286 3.73549 6.44571 3.81C6.38857 3.89024 6.37143 3.93609 6.31428 4.0278L5.66286 5.17983Z" fill="black"/>
</svg>
