<svg width="20" height="15" viewBox="0 0 20 15" fill="none" xmlns="http://www.w3.org/2000/svg">
<path d="M19.9985 2.88393C19.9985 6.58626 19.979 9.63664 19.979 13.339C19.979 13.65 19.7239 14.0223 19.4418 14.3019C19.0696 14.6713 18.5969 14.8088 18.0732 14.8088C13.5954 14.8058 9.11765 14.8088 4.63986 14.8058C3.64196 14.8058 2.64256 14.8058 1.64466 14.7909C1.16146 14.7834 0.7503 14.586 0.421669 14.2346C0.171068 13.9655 -0.0135054 13.6605 0.015006 13.2717C0.0195078 13.2343 0 2.30226 0 2.27086C0.0165066 1.81629 0.244598 1.46939 0.579232 1.18678C0.946879 0.875757 1.38205 0.766602 1.86074 0.766602C7.14586 0.771087 12.431 0.769592 17.7161 0.769592C17.8962 0.769592 18.0762 0.769592 18.2578 0.772583C18.6074 0.780059 18.9286 0.88772 19.2107 1.09108C19.6188 1.38415 19.967 2.06601 20 2.58337V2.88243L19.9985 2.88393ZM1.95378 1.93741C1.98379 1.9718 2.0018 1.99274 2.02131 2.01367C2.13685 2.12881 2.2554 2.24245 2.37095 2.35759C3.39586 3.38335 4.42227 4.40912 5.44718 5.43489C6.7602 6.74775 8.07473 8.06061 9.38475 9.37646C9.72539 9.71888 10.2026 9.7144 10.5177 9.39142C11.202 8.69013 11.8968 7.9993 12.587 7.304C13.0927 6.7956 13.5954 6.28421 14.1026 5.7788C15.3601 4.52725 16.6191 3.27868 17.8766 2.02713C17.8992 2.0047 17.9187 1.98077 17.9592 1.93741H1.95378ZM1.97029 13.638H17.9577C16.274 11.9469 14.6053 10.2706 12.9307 8.58845C12.8706 8.65424 12.8286 8.70508 12.7821 8.75143C12.2689 9.26581 11.7617 9.78617 11.2395 10.2916C10.7953 10.7207 10.2491 10.8703 9.64436 10.7716C9.26921 10.7103 8.94058 10.5338 8.66747 10.2602C8.14376 9.73234 7.61705 9.20749 7.09034 8.68265C7.06032 8.65274 7.02881 8.62583 7.0018 8.6019C5.32563 10.2796 3.65696 11.9499 1.97029 13.6365V13.638ZM1.10294 12.8545C1.19748 12.7603 1.27401 12.6855 1.35054 12.6108C2.93968 11.0273 4.52731 9.44375 6.11795 7.86174C6.17647 7.80342 6.18097 7.77052 6.11945 7.70922C5.56423 7.16045 5.012 6.61018 4.46128 6.05842C3.37035 4.96686 2.27941 3.87381 1.18848 2.78225C1.16897 2.76281 1.14496 2.74786 1.10294 2.71496V12.8545ZM13.7155 7.77352C15.4247 9.46618 17.1188 11.1424 18.8085 12.8156V2.7329C17.0978 4.42706 15.4082 6.09879 13.7155 7.77501V7.77352Z" fill="black"/>
</svg>
