<svg width="30" height="31" viewBox="0 0 30 31" fill="none" xmlns="http://www.w3.org/2000/svg">
<path fill-rule="evenodd" clip-rule="evenodd" d="M14.7667 20.298C14.4626 20.493 13.7239 21.2546 13.4312 21.546C13.2048 21.7731 12.9829 21.9359 12.7565 22.163C12.4981 22.4291 12.3746 22.7021 11.9973 22.4819C11.9515 22.4291 12.2237 18.6188 12.4844 18.3596C13.2688 17.5796 14.163 16.857 14.9543 16.0702C15.7181 15.3155 16.6649 14.5997 17.4173 13.8404L19.2514 12.1566C19.5373 11.9364 19.75 11.7735 19.7431 11.4157C19.2308 11.395 18.81 11.7988 18.3618 12.0855L11.549 16.4235C9.83839 17.4971 10.4536 17.5039 8.52798 16.8456C7.99055 16.6643 7.44626 16.4877 6.90654 16.3065C6.45373 16.1505 5.53209 16.0335 5.64873 15.3889C5.73334 14.953 6.67327 14.7397 7.07577 14.5814C9.74691 13.5399 12.4752 12.5787 15.1669 11.5258C17.2938 10.6862 19.4778 9.94523 21.5909 9.08728C23.4182 8.33944 22.5698 10.8491 22.3937 11.6634L20.0793 22.693C19.5533 24.1359 18.005 22.6677 17.351 22.1722C16.6054 21.6125 15.5351 20.7293 14.7644 20.3003L14.7667 20.298ZM30 14.8154V15.6665C29.785 23.294 23.9899 29.8364 16.2052 30.3755C15.9788 30.3962 15.757 30.4008 15.5306 30.4076H14.6867C7.09178 30.1966 0.569447 24.3813 0.0320171 16.5588C0.0182955 16.3386 0.0068608 16.1092 0 15.889V15.0104C0.219546 7.35761 6.01006 0.900016 13.8268 0.360928C18.0851 0.0627086 21.7739 1.28541 24.9825 4.10014C27.8228 6.58453 29.7073 10.3811 29.968 14.1478C29.9886 14.3749 29.9931 14.5974 30 14.8177V14.8154Z" fill="#652D86"/>
</svg>
