<svg width="30" height="31" viewBox="0 0 30 31" fill="none" xmlns="http://www.w3.org/2000/svg">
<path fill-rule="evenodd" clip-rule="evenodd" d="M24.2149 16.1368C23.5715 21.4663 18.6005 25.0765 13.3294 23.8742C12.7723 23.7445 12.0444 23.53 11.5719 23.2722C10.8439 22.8432 10.5438 23.1425 9.77119 23.3587L6.94248 24.0887C5.99904 24.3897 6.38536 23.8309 6.94248 21.9402C7.71351 19.0601 7.6289 20.0495 6.98558 18.3733C6.72857 17.7714 6.55776 17.1262 6.47156 16.4826C5.65743 11.153 9.77119 6.25252 15.1285 6.12444C20.5289 5.99477 24.8582 10.724 24.2149 16.14V16.1368ZM30 14.848V15.6213C29.8292 23.2722 24.0425 29.8489 16.1996 30.3644C15.9857 30.4076 15.7718 30.4076 15.5563 30.4076H14.6991C7.11488 30.1915 0.557122 24.3881 0.0431012 16.5658C0 16.3513 0 16.1368 0 15.8774V15.0177C0.213909 7.36838 6.00064 0.919758 13.8435 0.361026C18.1296 0.0600478 21.7725 1.30719 24.9859 4.10084C27.8146 6.59352 29.6999 10.3766 29.9569 14.158C30 14.3725 30 14.5871 30 14.8464V14.848Z" fill="#652D86"/>
<path fill-rule="evenodd" clip-rule="evenodd" d="M13.7575 13.3433C13.5436 14.0317 12.7709 14.1165 13.2434 14.8914C13.8868 15.8375 14.744 16.6972 15.8151 17.1695C16.7155 17.5569 16.6293 17.384 17.2295 16.6108C17.6158 16.0953 17.6573 16.1385 18.8147 16.6972C19.6288 17.1263 20.0582 17.0414 19.8012 18.0292C19.0733 20.7797 13.716 19.1899 11.2289 14.7201C10.2008 12.8293 11.1858 10.7225 12.6001 10.9802C12.9864 11.0235 13.0279 11.2812 13.1572 11.6254C13.328 11.9696 13.8852 13.0439 13.7575 13.3449V13.3433ZM14.8286 7.66949C12.6001 7.88401 11.1858 8.5292 9.6421 10.2486C8.22775 11.8384 7.58442 14.203 7.92763 16.2666C8.14154 17.5137 8.44165 18.0725 9.04188 19.1467C9.34199 19.7486 8.18464 21.9403 8.57096 22.07C8.70026 22.1565 9.85601 21.769 10.1146 21.7258C10.5855 21.5961 11.1012 21.2968 11.5721 21.5961C12.4293 22.1117 13.5436 22.4991 14.5716 22.5855C18.9009 22.9297 22.7145 19.7486 22.8007 15.322C22.8869 10.9802 19.201 7.19881 14.8286 7.67109V7.66949Z" fill="#652D86"/>
</svg>
