<svg width="30" height="31" viewBox="0 0 30 31" fill="none" xmlns="http://www.w3.org/2000/svg">
<path fill-rule="evenodd" clip-rule="evenodd" d="M29.968 14.1489C29.7139 10.393 27.8122 6.57056 24.9836 4.1026C21.7545 1.28338 18.1044 0.0643178 13.8294 0.360473C6.00961 0.902278 0.219696 7.35571 0 15.0144V15.8868C0.00457701 16.1072 0.0160195 16.3322 0.0297506 16.5595C0.569838 24.3789 7.09436 30.1964 14.6945 30.4076H15.5344C15.7541 30.4031 15.9783 30.3916 16.2049 30.3778C24.0201 29.8314 29.8078 23.2563 30 15.5976V14.8308C29.9954 14.6058 29.984 14.3739 29.9703 14.1489H29.968ZM24.1895 18.5821C24.059 19.6703 23.94 20.6827 22.9102 21.2957C22.226 21.702 20.2807 21.8168 19.4546 21.8214C17.5345 21.8467 15.5801 22.0418 13.6395 21.8972C12.9895 21.8467 12.3144 21.9179 11.6645 21.8765C10.5042 21.8054 9.09451 21.8054 7.97544 21.585C5.38485 21.0638 5.79449 17.9645 5.62514 15.9419C5.58624 15.4254 5.73499 12.7577 5.81051 12.1241C5.94096 11.0106 6.05538 10.0533 7.09436 9.41503C7.76947 8.99949 9.72385 8.89389 10.5431 8.88241C12.3373 8.86175 14.5869 8.65742 16.3628 8.80665C17.0173 8.86175 17.6833 8.78599 18.3332 8.82731C19.4935 8.89848 20.9078 8.89848 22.0269 9.12347C24.6426 9.64461 24.1872 12.7439 24.352 14.7757C24.4069 15.4024 24.2719 17.8704 24.1872 18.5775L24.1895 18.5821Z" fill="#652D86"/>
<path fill-rule="evenodd" clip-rule="evenodd" d="M13.1245 18.1757L18.0036 15.3771L13.1337 12.5166L13.1245 18.1757Z" fill="#652D86"/>
</svg>
