<svg width="37" height="16" viewBox="0 0 37 16" fill="none" xmlns="http://www.w3.org/2000/svg">
<path d="M8.71631 16C13.5863 16 17.1563 12 18.7163 9.81C20.2763 12 23.8463 16 28.7163 16C30.838 16 32.8729 15.1571 34.3732 13.6569C35.8735 12.1566 36.7163 10.1217 36.7163 8C36.7163 5.87827 35.8735 3.84344 34.3732 2.34315C32.8729 0.842854 30.838 0 28.7163 0C23.8463 0 20.2763 4 18.7163 6.19C17.1563 4 13.5863 0 8.71631 0C6.59458 0 4.55975 0.842854 3.05945 2.34315C1.55916 3.84344 0.716309 5.87827 0.716309 8C0.716309 10.1217 1.55916 12.1566 3.05945 13.6569C4.55975 15.1571 6.59458 16 8.71631 16ZM28.7163 2C30.3076 2 31.8337 2.63214 32.959 3.75736C34.0842 4.88258 34.7163 6.4087 34.7163 8C34.7163 9.5913 34.0842 11.1174 32.959 12.2426C31.8337 13.3679 30.3076 14 28.7163 14C24.2563 14 20.9063 9.52 19.8963 8C20.9063 6.49 24.2463 2 28.7163 2ZM8.71631 2C13.1763 2 16.5263 6.48 17.5363 8C16.5363 9.52 13.1863 14 8.71631 14C7.12501 14 5.59889 13.3679 4.47367 12.2426C3.34845 11.1174 2.71631 9.5913 2.71631 8C2.71631 6.4087 3.34845 4.88258 4.47367 3.75736C5.59889 2.63214 7.12501 2 8.71631 2Z" fill="#7220A3"/>
</svg>
