<svg width="47" height="47" viewBox="0 0 47 47" fill="none" xmlns="http://www.w3.org/2000/svg">
<path d="M23.3355 46.9662C12.2626 46.9662 4.40771 39.2876 4.40771 28.7082C4.40771 23.0917 7.77556 17.0404 7.91803 16.7878C8.21031 16.2679 8.78459 15.9844 9.38384 16.0505C9.97721 16.1269 10.4648 16.5543 10.6176 17.1315C10.6264 17.1667 11.5341 20.5625 12.7326 22.4484C13.5375 23.7174 14.3541 24.6148 15.2721 25.2375C14.6508 22.5453 14.1749 18.4945 14.9489 14.3379C17.0757 2.92869 26.0556 0.198279 26.4404 0.0895917C26.9354 -0.0528771 27.4612 0.0749042 27.8372 0.417123C28.2132 0.762279 28.3851 1.27781 28.2881 1.77865C28.2734 1.85797 26.79 9.8465 29.9375 16.6527C30.2239 17.271 30.622 17.9892 31.0508 18.7075C31.1727 17.7205 31.3622 16.6718 31.653 15.6525C32.8075 11.6149 35.7934 10.2357 35.9183 10.1799C36.4162 9.95372 36.9978 10.0272 37.4267 10.365C37.8556 10.7042 38.0626 11.2506 37.9628 11.7882C37.9466 11.8881 37.531 14.6346 39.8692 18.5327C41.9813 22.0518 42.5893 24.3328 42.5893 28.7082C42.5893 39.2876 34.4907 46.9647 23.3326 46.9647L23.3355 46.9662ZM8.9814 21.4658C8.17506 23.5 7.34375 26.204 7.34375 28.7082C7.34375 37.5853 13.9619 44.0272 23.334 44.0272C32.7898 44.0272 39.6518 37.5853 39.6518 28.7067C39.6518 24.8718 39.1774 23.0932 37.3503 20.0426C36.1283 18.0069 35.5246 16.1753 35.2368 14.7183C34.946 15.1898 34.6757 15.7641 34.4789 16.4573C33.583 19.5872 33.8092 23.2474 33.8121 23.2856C33.8547 23.9406 33.4567 24.5472 32.8368 24.7661C32.217 24.9849 31.5267 24.769 31.1463 24.2314C31.0361 24.0743 28.4232 20.3774 27.2732 17.8864C24.8821 12.7194 24.9217 7.13078 25.167 3.91275C22.7465 5.32275 19.0321 8.47175 17.8394 14.8784C16.6777 21.1118 18.9351 27.3452 18.9586 27.4054C19.154 27.9136 19.0512 28.4908 18.6928 28.9006C18.3329 29.3074 17.7792 29.4881 17.2446 29.3603C17.0625 29.3162 12.9294 28.2411 10.2519 24.0229C9.77453 23.2679 9.34565 22.3529 8.98287 21.4643L8.9814 21.4658Z" fill="#00B48C"/>
</svg>
