<svg width="29" height="47" viewBox="0 0 29 47" fill="none" xmlns="http://www.w3.org/2000/svg">
<path d="M25.1049 0H4.678C2.96388 0 1.57517 1.38935 1.57517 3.10356V4.7H1.57481V7.05C1.14217 7.05 0.791504 7.40066 0.791504 7.8333V8.6166C0.791504 9.04924 1.14217 9.39991 1.57481 9.39991V10.1832C1.14217 10.1832 0.791504 10.5339 0.791504 10.9665V11.75C0.791504 12.1826 1.14217 12.5333 1.57481 12.5333V13.3166C1.14217 13.3166 0.791504 13.6674 0.791504 14.0999V14.8832C0.791504 15.3159 1.14217 15.6665 1.57481 15.6665V40.7332H1.57517V43.8963C1.57517 45.6106 2.96388 46.9999 4.678 46.9999H25.105C26.8191 46.9999 28.2086 45.6105 28.2086 43.8963V3.10356C28.2085 1.38944 26.8191 0 25.1049 0ZM3.14187 3.10356C3.14187 2.25444 3.82934 1.5667 4.678 1.5667H25.105C25.9539 1.5667 26.6419 2.25471 26.6419 3.10356V4.7H3.14187V3.10356ZM14.8915 44.65C14.0261 44.65 13.3248 43.9487 13.3248 43.0833C13.3248 42.2179 14.0261 41.5166 14.8915 41.5166C15.7569 41.5166 16.4582 42.2179 16.4582 43.0833C16.4582 43.9487 15.7568 44.65 14.8915 44.65ZM3.14187 6.2667H26.6415V39.1667H3.14187V6.2667ZM3.14187 43.8964V40.7333H12.82C12.1692 41.3074 11.7582 42.1471 11.7582 43.0833C11.7582 44.0195 12.1692 44.8592 12.82 45.4333H4.678C3.82925 45.4333 3.14187 44.7456 3.14187 43.8964ZM25.1049 45.4333H16.9629C17.6137 44.8592 18.0247 44.0195 18.0247 43.0833C18.0247 42.1471 17.6137 41.3074 16.9629 40.7333H26.6418V43.8964C26.6419 44.7454 25.9539 45.4333 25.1049 45.4333Z" fill="#00B48C"/>
<path d="M18.0247 2.35001H14.108C13.6754 2.35001 13.3247 2.70076 13.3247 3.13331C13.3247 3.56586 13.6754 3.91661 14.108 3.91661H18.0247C18.4573 3.91661 18.808 3.56595 18.808 3.13331C18.808 2.70067 18.4573 2.35001 18.0247 2.35001Z" fill="#00B48C"/>
<path d="M11.758 2.35001H10.9747C10.5421 2.35001 10.1914 2.70076 10.1914 3.13331C10.1914 3.56586 10.5421 3.91661 10.9747 3.91661H11.758C12.1906 3.91661 12.5413 3.56595 12.5413 3.13331C12.5413 2.70067 12.1906 2.35001 11.758 2.35001Z" fill="#00B48C"/>
<path d="M21.7369 26.2103C21.4469 25.8437 21.054 25.4741 20.5806 25.0998C20.2513 24.8395 19.9016 24.5916 19.5521 24.363C19.3419 24.2255 19.1765 24.1237 19.0777 24.0658C18.2221 23.5791 17.2292 23.6436 16.7138 24.4701C16.6197 24.5821 16.4903 24.7335 16.3575 24.8837C16.3384 24.9053 16.3384 24.9053 16.3193 24.9268C16.1767 25.0869 16.0425 25.2253 16.0545 25.2172C15.5384 25.567 15.2221 25.5411 14.7665 25.0855L13.0337 23.3534L11.3011 21.6208C10.8462 21.1655 10.8204 20.849 11.17 20.3332C11.162 20.3449 11.3005 20.2107 11.4606 20.0682C11.4821 20.0491 11.4821 20.0491 11.5038 20.0299C11.6539 19.8972 11.8053 19.7677 11.9173 19.6736C12.7441 19.158 12.8084 18.1645 12.3254 17.3178C12.2629 17.2111 12.1611 17.0458 12.0236 16.8355C11.7951 16.486 11.5472 16.1362 11.287 15.8071C10.9135 15.3346 10.5448 14.9423 10.1791 14.6524C10.0168 14.5237 9.85502 14.4154 9.69199 14.3291C8.92751 13.9248 7.98999 14.0661 7.37788 14.6769L6.61248 15.4432C4.03841 18.0164 4.74809 21.0851 7.80731 24.1443L10.0248 26.3626L12.2435 28.5804C15.3026 31.6395 18.3713 32.3493 20.9449 29.7748L21.7101 29.0096C22.3215 28.3982 22.4629 27.4602 22.0586 26.6959C21.9727 26.5332 21.8649 26.372 21.7369 26.2103ZM20.6023 27.9015L19.837 28.6668C18.0131 30.4913 15.8761 29.9971 13.3512 27.4722L11.1327 25.2545L8.9153 23.0363C6.39033 20.5114 5.8961 18.3743 7.72056 16.5505L8.48551 15.7848C8.61081 15.6598 8.80285 15.6309 8.95945 15.7137C9.03151 15.7518 9.11468 15.8076 9.20602 15.8799C9.46177 16.0827 9.75331 16.3928 10.058 16.7784C10.2864 17.0673 10.508 17.38 10.7127 17.6929C10.8351 17.8801 10.9236 18.0239 10.9693 18.1018C11.0804 18.2967 11.076 18.3514 11.0791 18.3496L10.9607 18.4313C10.929 18.4577 10.8749 18.5032 10.8057 18.5622C10.6903 18.6604 10.5748 18.7602 10.4662 18.8561C10.4424 18.8771 10.4424 18.8771 10.4187 18.8983C10.1315 19.1542 9.97151 19.3091 9.87311 19.4544C9.10706 20.5847 9.20106 21.7352 10.1931 22.7283L11.9261 24.4613L13.659 26.1934C14.6519 27.1863 15.8025 27.2807 16.9333 26.5141C17.0783 26.4159 17.2333 26.256 17.4891 25.9688C17.5103 25.945 17.5103 25.945 17.5314 25.9212C17.6273 25.8126 17.7272 25.6972 17.8253 25.5818C17.8842 25.5126 17.9298 25.4584 17.9562 25.4267L18.0378 25.3083C18.0361 25.3113 18.0911 25.3068 18.2944 25.4225C18.3635 25.4631 18.5072 25.5516 18.6944 25.674C19.0074 25.8787 19.32 26.1003 19.609 26.3288C19.9952 26.6341 20.3056 26.9262 20.5083 27.1823C20.5802 27.2732 20.6356 27.3561 20.6737 27.4281C20.7565 27.5846 20.7275 27.7762 20.6023 27.9015Z" fill="#00B48C"/>
<path d="M10.9748 13.3167C12.2741 13.3167 13.3248 14.3674 13.3248 15.6667C13.3248 16.0993 13.6755 16.45 14.1081 16.45C14.5407 16.45 14.8914 16.0993 14.8914 15.6667C14.8914 13.5021 13.1393 11.75 10.9747 11.75C10.5421 11.75 10.1914 12.1007 10.1914 12.5333C10.1914 12.9659 10.5422 13.3167 10.9748 13.3167Z" fill="#00B48C"/>
<path d="M20.3749 21.15C19.9422 21.15 19.5916 21.5007 19.5916 21.9333C19.5916 22.3659 19.9422 22.7166 20.3749 22.7166C21.6741 22.7166 22.7249 23.7673 22.7249 25.0666C22.7249 25.4992 23.0756 25.8499 23.5082 25.8499C23.9407 25.8499 24.2915 25.4991 24.2915 25.0666C24.2916 22.9021 22.5394 21.15 20.3749 21.15Z" fill="#00B48C"/>
</svg>
