<svg width="21" height="20" viewBox="0 0 21 20" fill="none" xmlns="http://www.w3.org/2000/svg">
<path d="M10.3842 18.0448V6.4084M8.99821 5.71032C9.14566 5.74265 9.30103 5.70303 9.40719 5.59931C9.51334 5.49559 9.55384 5.34373 9.52081 5.19973C9.38847 4.67158 8.90099 2.90304 8.40043 2.41399C7.77679 1.80469 6.76179 1.80215 6.14124 2.40844C5.52073 3.01468 5.52324 4.00635 6.14692 4.61569C6.65567 5.11275 8.45765 5.58104 8.99821 5.71032ZM10.5118 5.19969C10.4787 5.34375 10.5193 5.49555 10.6254 5.59927C10.7316 5.70299 10.887 5.74255 11.0344 5.71028C11.575 5.58098 13.3851 5.10471 13.8857 4.61565C14.5093 4.00635 14.5119 3.01468 13.8914 2.4084C13.2709 1.80215 12.2559 1.8046 11.6322 2.41395C11.1234 2.91101 10.6441 4.67155 10.5118 5.19969ZM2.64263 10.4811H17.8281C18.157 10.4811 18.4236 10.2206 18.4236 9.89931V6.99022C18.4236 6.66889 18.157 6.4084 17.8281 6.4084H2.64263C2.31374 6.4084 2.04712 6.66889 2.04712 6.99021V9.89931C2.04712 10.2206 2.31374 10.4811 2.64263 10.4811ZM16.9348 10.4811V17.4629C16.9348 17.7843 16.6682 18.0448 16.3393 18.0448H4.1314C3.80251 18.0448 3.53589 17.7843 3.53589 17.4629V10.4811H16.9348Z" stroke="#7220A3" stroke-linecap="round" stroke-linejoin="round"/>
</svg>
