<svg width="24" height="25" viewBox="0 0 24 25" fill="none" xmlns="http://www.w3.org/2000/svg">
<path d="M8.30592 19.1918C8.11004 18.9945 8 18.7268 8 18.4477C8 18.1686 8.11004 17.901 8.30592 17.7036L13.4779 12.4936L8.30592 7.28371C8.11559 7.0852 8.01027 6.81933 8.01266 6.54337C8.01504 6.2674 8.12492 6.00342 8.31865 5.80827C8.51237 5.61313 8.77443 5.50244 9.04839 5.50004C9.32235 5.49764 9.58628 5.60373 9.78334 5.79545L15.6941 11.7495C15.89 11.9469 16 12.2146 16 12.4936C16 12.7727 15.89 13.0404 15.6941 13.2378L9.78334 19.1918C9.5874 19.3892 9.32169 19.5 9.04463 19.5C8.76757 19.5 8.50186 19.3892 8.30592 19.1918Z" fill="#E2E2E2"/>
</svg>
