<svg width="32" height="33" viewBox="0 0 32 33" fill="none" xmlns="http://www.w3.org/2000/svg">
<g clip-path="url(#clip0_174_3714)">
<path d="M0.483252 16.5C0.483252 16.9695 0.86381 17.35 1.33325 17.35C1.80269 17.35 2.18325 16.9695 2.18325 16.5H0.483252ZM31.5166 16.5C31.5166 16.0306 31.136 15.65 30.6666 15.65C30.1971 15.65 29.8166 16.0306 29.8166 16.5H31.5166ZM5.49956 25.4806C5.19426 25.124 4.65768 25.0824 4.30107 25.3877C3.94446 25.693 3.90287 26.2296 4.20816 26.5862L5.49956 25.4806ZM26.5003 7.5195C26.8056 7.87611 27.3422 7.9177 27.6988 7.6124C28.0554 7.30711 28.097 6.77052 27.7917 6.41392L26.5003 7.5195ZM29.5584 4.74196C29.5563 4.27252 29.174 3.89367 28.7046 3.89576C28.2352 3.89786 27.8563 4.28011 27.8584 4.74954L29.5584 4.74196ZM24.7815 7.82643C24.3121 7.82433 23.9298 8.20319 23.9277 8.67263C23.9256 9.14207 24.3045 9.52432 24.7739 9.52641L24.7815 7.82643ZM28.1092 7.55729L28.7814 8.07751L28.7814 8.07751L28.1092 7.55729ZM27.5893 8.07722L28.1095 8.74943L28.1095 8.74943L27.5893 8.07722ZM2.32097 28.1402C2.32307 28.6096 2.70532 28.9885 3.17476 28.9864C3.64419 28.9843 4.02305 28.602 4.02095 28.1326L2.32097 28.1402ZM7.09784 25.0557C7.56728 25.0578 7.94953 24.679 7.95162 24.2095C7.95372 23.7401 7.57486 23.3578 7.10542 23.3557L7.09784 25.0557ZM3.77017 25.3249L3.09796 24.8046H3.09795L3.77017 25.3249ZM4.29009 24.8049L3.76987 24.1327H3.76987L4.29009 24.8049ZM15.9999 0.983374C7.4303 0.983374 0.483252 7.93042 0.483252 16.5H2.18325C2.18325 8.86931 8.36918 2.68337 15.9999 2.68337V0.983374ZM15.9999 32.0167C24.5695 32.0167 31.5166 25.0697 31.5166 16.5H29.8166C29.8166 24.1308 23.6307 30.3167 15.9999 30.3167V32.0167ZM4.20816 26.5862C7.05275 29.9088 11.2806 32.0167 15.9999 32.0167V30.3167C11.7981 30.3167 8.03494 28.4421 5.49956 25.4806L4.20816 26.5862ZM27.7917 6.41392C24.9471 3.09126 20.7192 0.983374 15.9999 0.983374V2.68337C20.2018 2.68337 23.9649 4.558 26.5003 7.5195L27.7917 6.41392ZM27.8584 4.74954C27.861 5.33677 27.8631 5.73744 27.8558 6.0322C27.8484 6.33422 27.8315 6.46354 27.8161 6.52856C27.8092 6.55758 27.8073 6.56617 27.7734 6.61336C27.6888 6.73108 27.6469 6.76587 27.437 7.03707L28.7814 8.07751C28.8789 7.95153 29.0668 7.72661 29.1538 7.6056C29.2915 7.41406 29.4029 7.20489 29.4703 6.92064C29.5291 6.67239 29.5475 6.39293 29.5553 6.07416C29.5634 5.74814 29.5609 5.31602 29.5584 4.74196L27.8584 4.74954ZM24.7739 9.52641C25.348 9.52897 25.7801 9.5314 26.1061 9.52336C26.4249 9.51549 26.7044 9.49716 26.9526 9.43832C27.2369 9.37094 27.446 9.25952 27.6376 9.12184C27.7586 9.03485 27.9835 8.84693 28.1095 8.74943L27.069 7.405C26.7978 7.61488 26.763 7.65684 26.6453 7.74145C26.5981 7.77537 26.5896 7.77727 26.5605 7.78415C26.4955 7.79956 26.3662 7.81642 26.0642 7.82387C25.7694 7.83115 25.3687 7.82905 24.7815 7.82643L24.7739 9.52641ZM27.437 7.03707C27.3304 7.1748 27.2068 7.29841 27.069 7.40501L28.1095 8.74943C28.361 8.55478 28.5868 8.32903 28.7814 8.07751L27.437 7.03707ZM4.02095 28.1326C4.01833 27.5454 4.01623 27.1447 4.02351 26.8499C4.03097 26.5479 4.04782 26.4186 4.06323 26.3536C4.07011 26.3246 4.07201 26.316 4.10593 26.2688C4.19055 26.1511 4.2325 26.1163 4.44238 25.8451L3.09795 24.8046C3.00046 24.9306 2.81253 25.1555 2.72554 25.2765C2.58786 25.4681 2.47644 25.6772 2.40906 25.9615C2.35022 26.2098 2.3319 26.4892 2.32403 26.808C2.31598 27.134 2.31841 27.5661 2.32097 28.1402L4.02095 28.1326ZM7.10542 23.3557C6.53136 23.3532 6.09924 23.3507 5.77323 23.3588C5.45446 23.3667 5.175 23.385 4.92675 23.4438C4.64249 23.5112 4.43333 23.6226 4.24179 23.7603C4.12077 23.8473 3.89586 24.0352 3.76987 24.1327L4.81032 25.4771C5.08151 25.2673 5.11631 25.2253 5.23402 25.1407C5.28121 25.1068 5.28981 25.1049 5.31882 25.098C5.38384 25.0826 5.51316 25.0657 5.81518 25.0583C6.10995 25.051 6.51062 25.0531 7.09784 25.0557L7.10542 23.3557ZM4.44238 25.8451C4.54897 25.7073 4.67258 25.5837 4.81032 25.4771L3.76987 24.1327C3.51836 24.3274 3.2926 24.5531 3.09796 24.8046L4.44238 25.8451Z" fill="#333333"/>
<path d="M11 23V15.1875L14.3333 10.5H21V23H11Z" stroke="#333333" stroke-width="1.7" stroke-linejoin="round"/>
</g>
<defs>
<clipPath id="clip0_174_3714">
<rect width="32" height="32" fill="white" transform="translate(0 0.5)"/>
</clipPath>
</defs>
</svg>
