<svg width="93" height="31" viewBox="0 0 93 31" fill="none" xmlns="http://www.w3.org/2000/svg">
<path fill-rule="evenodd" clip-rule="evenodd" d="M56.437 16.5818C56.437 16.1476 56.7775 11.9944 61.3102 11.9944C64.3162 11.9944 65.4019 13.7119 65.9723 16.5818H56.437ZM61.4745 7.53164C54.7236 7.53164 50.571 12.705 50.571 18.9073C50.571 24.2653 53.6125 30.2072 61.4745 30.2072C68.607 30.2072 70.6336 25.585 71.4591 22.9991H67.737C66.8843 22.9991 66.2588 23.3424 65.678 24.067C65.4336 24.3482 64.1859 25.786 61.6818 25.786C56.607 25.786 56.5334 21.721 56.437 20.3304H71.8323C72.2676 14.0884 68.9963 7.53157 61.4739 7.53157" fill="#7220A3"/>
<path fill-rule="evenodd" clip-rule="evenodd" d="M75.4727 -1.14441e-05V24.2524C75.5196 28.3385 76.264 29.7589 81.3004 29.7589L81.2959 4.78358C81.2569 0.759476 80.4885 -1.14441e-05 75.4727 -1.14441e-05Z" fill="#7220A3"/>
<path fill-rule="evenodd" clip-rule="evenodd" d="M86.778 -1.14441e-05V24.2524C86.8221 28.3385 87.5668 29.7589 92.6044 29.7589L92.6011 4.78358C92.5615 0.759476 91.788 -1.14441e-05 86.7778 -1.14441e-05" fill="#7220A3"/>
<path fill-rule="evenodd" clip-rule="evenodd" d="M44.1694 21.4162C44.1694 21.4162 42.8351 21.3669 42.3206 22.7857C41.5934 24.8067 40.2617 25.7864 37.9918 25.7864C34.4666 25.7864 33.1227 22.3947 33.1227 18.9104C33.1227 15.6001 34.5037 11.9945 38.1199 11.9945C40.3748 11.9945 41.5712 13.0146 42.0819 14.3327C42.3609 15.0558 42.7753 15.7054 44.0699 15.7054H48.1882C47.8767 10.138 43.1401 7.53165 38.1544 7.53165C30.8076 7.53165 27.2646 12.9092 27.2646 19.1659C27.2646 26.1712 32.0741 30.2079 38.0314 30.2079C43.2333 30.2079 47.4939 27.5711 48.3112 21.4166H44.1694V21.4162Z" fill="#7220A3"/>
<path fill-rule="evenodd" clip-rule="evenodd" d="M23.6924 18.9311C23.6924 26.5141 19.2554 30.209 11.8266 30.209C4.35489 30.209 0 26.5574 0 18.9311V0.00113678C5.22753 0.00113678 6.0616 1.39747 6.11461 5.40237L6.10792 18.9309C6.10792 21.9954 6.88549 25.0199 11.8268 25.0199C16.1838 25.0199 17.585 23.095 17.585 18.9309V0.000930786C22.8111 0.000930786 23.6445 1.39727 23.6993 5.40217L23.6926 18.9307L23.6924 18.9311Z" fill="#7220A3"/>
</svg>
