<svg width="24" height="24" viewBox="0 0 24 24" fill="none" xmlns="http://www.w3.org/2000/svg">
<path d="M2 5.11109C2 4.5588 2.44772 4.11108 3 4.11108H14.5C15.0523 4.11108 15.5 4.5588 15.5 5.11108V7.55553C15.5 8.10781 15.9477 8.55553 16.5 8.55553C17.0523 8.55553 17.5 8.10781 17.5 7.55553V5.11108C17.5 3.45423 16.1569 2.11108 14.5 2.11108H3C1.34315 2.11108 0 3.45423 0 5.11109V18.8889C0 20.5457 1.34315 21.8889 3 21.8889H14.5C16.1569 21.8889 17.5 20.5457 17.5 18.8889V16.4444C17.5 15.8921 17.0523 15.4444 16.5 15.4444C15.9477 15.4444 15.5 15.8921 15.5 16.4444V18.8889C15.5 19.4411 15.0523 19.8889 14.5 19.8889H3C2.44772 19.8889 2 19.4411 2 18.8889V5.11109ZM20.2071 8.29286C19.8166 7.90234 19.1834 7.90234 18.7929 8.29286C18.4024 8.68339 18.4024 9.31655 18.7929 9.70708L20.0858 11H8C7.44772 11 7 11.4477 7 12C7 12.5523 7.44772 13 8 13H20.0858L18.7929 14.2929C18.4024 14.6834 18.4024 15.3166 18.7929 15.7071C19.1834 16.0976 19.8166 16.0976 20.2071 15.7071L23.2071 12.7071C23.5976 12.3166 23.5976 11.6834 23.2071 11.2929L20.2071 8.29286Z" fill="white"/>
</svg>
